<?xml version="1.0" standalone="no"?>
<!DOCTYPE svg PUBLIC "-//W3C//DTD SVG 20010904//EN"
 "http://www.w3.org/TR/2001/REC-SVG-20010904/DTD/svg10.dtd">
<svg version="1.0" xmlns="http://www.w3.org/2000/svg"
 width="331.000000pt" height="226.000000pt" viewBox="0 0 331.000000 226.000000"
 preserveAspectRatio="xMidYMid meet">

<g transform="translate(0.000000,226.000000) scale(0.100000,-0.100000)"
fill="#000000" stroke="none">
<path d="M285 805 c-163 -35 -249 -102 -215 -165 14 -27 32 -25 28 2 -4 30 39
53 157 83 139 36 225 31 225 -11 0 -28 -39 -89 -123 -193 -58 -71 -83 -109
-80 -122 4 -15 30 7 122 103 168 176 271 247 271 186 0 -13 -25 -70 -55 -127
-30 -57 -55 -113 -55 -123 0 -39 39 -13 87 57 57 82 194 205 229 205 13 0 24
-3 24 -7 0 -4 -43 -71 -96 -149 -83 -122 -97 -149 -101 -191 -5 -45 -3 -52 22
-71 15 -12 38 -22 51 -22 22 0 25 4 24 28 -1 4 -10 6 -20 4 -16 -3 -20 3 -20
22 0 32 68 164 143 280 64 97 77 135 54 155 -12 9 -25 10 -55 2 -35 -10 -59
-25 -143 -90 l-27 -21 6 45 c6 54 -9 75 -51 75 -29 0 -113 -46 -137 -76 -21
-24 -29 -16 -18 20 16 51 3 85 -37 102 -42 17 -129 17 -210 -1z"/>
<path d="M2369 791 c-62 -24 -138 -79 -155 -113 -28 -55 -12 -84 70 -123 51
-25 56 -46 18 -74 -63 -45 -152 -50 -261 -16 -21 7 -22 6 -12 -14 23 -43 59
-56 151 -56 68 0 93 5 126 22 23 12 44 29 47 38 9 21 27 19 27 -4 0 -60 52
-69 117 -22 39 28 39 28 49 7 13 -29 57 -32 98 -7 34 21 34 21 39 1 9 -35 90
-19 126 24 17 20 32 21 25 2 -3 -8 -1 -24 6 -35 18 -35 76 -25 127 22 13 11
24 19 25 16 2 -2 8 -13 14 -24 18 -33 56 -41 108 -21 50 19 146 99 133 112 -4
4 -13 0 -20 -8 -6 -9 -34 -32 -60 -52 -66 -49 -118 -47 -102 4 3 11 12 17 20
14 22 -9 102 32 110 55 24 76 -117 59 -179 -22 -31 -40 -94 -87 -118 -87 -14
0 -15 5 -8 31 14 48 57 99 85 99 13 0 27 -5 30 -10 4 -6 11 -7 17 -4 7 5 1 16
-17 30 l-28 22 42 38 c22 21 41 42 41 46 0 4 -15 8 -34 8 -26 0 -41 -7 -60
-31 -14 -17 -26 -35 -26 -40 0 -5 -16 -17 -36 -26 -26 -13 -34 -22 -30 -36 3
-13 -7 -29 -31 -50 -85 -76 -134 -88 -84 -22 17 22 31 45 31 50 0 17 -64 55
-92 55 -46 0 -75 -17 -153 -90 -107 -99 -151 -91 -84 14 29 47 31 48 70 42 45
-7 52 7 14 27 l-25 13 40 39 c22 21 40 43 40 47 0 13 -55 9 -72 -4 -8 -7 -25
-27 -37 -45 -12 -18 -34 -38 -49 -46 -17 -8 -26 -19 -24 -31 2 -10 -7 -29 -19
-42 l-23 -24 -12 30 c-9 21 -30 38 -68 57 -31 15 -56 31 -56 37 0 29 171 146
215 146 13 0 7 -11 -23 -44 -46 -50 -59 -86 -45 -119 10 -21 11 -20 31 18 11
22 41 60 66 85 69 67 60 110 -23 110 -26 -1 -67 -9 -92 -19z m371 -239 c0 -13
-116 -122 -129 -122 -31 0 16 79 66 112 29 19 63 24 63 10z m430 -7 c0 -16
-49 -45 -77 -45 -14 1 -11 7 15 30 35 32 62 39 62 15z"/>
<path d="M1913 735 c-23 -10 -31 -19 -27 -29 3 -9 11 -13 16 -10 15 10 -5 -24
-58 -96 -47 -65 -70 -89 -131 -137 -44 -34 -62 -25 -29 14 33 39 33 58 -1 88
-56 49 -121 29 -216 -66 -73 -74 -137 -96 -107 -37 40 76 87 107 117 77 8 -8
13 -7 18 2 5 7 0 19 -13 30 -29 23 -28 29 13 69 19 19 35 38 35 42 0 10 -61
10 -76 0 -5 -4 -23 -24 -39 -45 -16 -22 -39 -43 -52 -48 -15 -6 -23 -17 -23
-32 0 -16 -17 -40 -50 -71 -44 -41 -60 -53 -60 -43 0 2 11 18 25 37 38 52 30
110 -16 110 -10 0 -31 -12 -48 -26 -28 -23 -31 -24 -31 -7 0 19 -18 43 -32 43
-4 0 -8 -11 -8 -24 0 -28 -89 -115 -137 -135 -38 -15 -66 -8 -61 15 2 11 15
17 41 19 71 4 124 71 81 102 -25 18 -58 16 -102 -6 -57 -29 -76 -55 -76 -108
-1 -40 3 -49 25 -61 34 -20 89 -9 131 26 18 15 27 19 20 10 -10 -13 -10 -19 3
-32 24 -23 30 -21 67 25 18 23 53 63 76 88 l44 46 -36 -50 c-47 -63 -48 -108
-1 -113 20 -2 42 6 64 23 l35 25 12 -30 c10 -22 20 -30 39 -30 30 0 75 21 94
44 19 22 29 20 33 -6 4 -32 58 -37 96 -9 28 19 28 19 40 0 17 -28 57 -24 107
11 53 36 55 37 55 5 0 -34 31 -49 75 -35 39 13 125 85 125 106 0 21 -8 18 -56
-25 -41 -36 -90 -59 -101 -47 -11 11 56 114 117 180 48 52 66 80 69 104 2 29
0 32 -26 32 -15 -1 -43 -7 -60 -15z m-883 -195 c0 -11 -53 -40 -72 -40 -18 1
39 50 58 50 8 0 14 -4 14 -10z m623 -5 c-11 -19 -112 -105 -124 -105 -16 0 23
59 59 91 35 31 80 41 65 14z"/>
<path d="M1854 339 c-8 -14 11 -33 25 -25 11 7 4 36 -9 36 -5 0 -12 -5 -16
-11z"/>
<path d="M1362 314 c-44 -30 -59 -185 -22 -219 17 -15 24 -16 45 -7 14 7 28
19 31 27 5 12 10 10 26 -10 20 -25 61 -34 73 -15 4 6 13 9 22 8 11 -2 19 12
29 49 7 29 20 69 29 90 22 53 35 28 35 -69 0 -96 20 -108 39 -24 13 60 38 89
73 84 21 -3 23 -8 24 -63 1 -33 2 -66 3 -72 2 -20 32 -15 58 9 l23 21 0 -21
c0 -13 6 -22 15 -22 13 0 15 15 13 92 -2 62 -7 93 -15 96 -10 3 -13 -14 -13
-61 0 -58 -2 -65 -25 -75 -25 -12 -25 -11 -25 39 0 40 -5 55 -26 75 -29 30
-67 27 -96 -7 -13 -16 -19 -18 -23 -8 -20 58 -26 69 -38 69 -8 0 -22 -9 -33
-21 l-18 -20 -8 20 c-4 12 -12 21 -18 21 -11 0 -14 -27 -11 -102 2 -32 -3 -53
-16 -67 -38 -45 -63 -14 -63 76 0 86 -43 138 -88 107z m52 -60 c12 -45 -26
-144 -55 -144 -4 0 -11 20 -14 44 -7 44 6 107 28 134 13 16 33 0 41 -34z"/>
<path d="M2308 303 c-25 -16 -28 -23 -28 -78 0 -58 -2 -61 -39 -87 -46 -33
-57 -34 -71 -9 -14 26 -14 25 20 63 32 35 40 82 15 92 -26 10 -43 -4 -52 -42
-5 -23 -17 -41 -31 -47 -27 -12 -28 -21 -2 -35 11 -6 20 -19 20 -30 0 -27 27
-50 60 -50 22 0 35 9 55 38 l26 37 -6 -36 c-5 -28 -3 -38 9 -42 15 -6 20 3 28
58 3 17 8 14 41 -19 41 -40 80 -46 101 -14 13 21 0 36 -16 20 -19 -19 -35 -14
-73 19 l-36 32 27 28 c20 21 27 39 28 71 1 39 -1 43 -24 45 -14 2 -37 -5 -52
-14z m52 -23 c0 -26 -27 -80 -40 -80 -16 0 -11 62 7 82 21 24 33 23 33 -2z
m-179 -53 c-10 -9 -11 -8 -5 6 3 10 9 15 12 12 3 -3 0 -11 -7 -18z"/>
<path d="M2054 298 c-4 -6 -9 -44 -12 -85 -3 -40 -8 -73 -12 -73 -4 0 -23 26
-43 59 -45 72 -65 91 -77 71 -11 -17 -25 -179 -16 -187 13 -13 24 13 31 72 4
33 8 61 9 63 2 1 20 -24 40 -57 33 -54 68 -82 83 -67 3 3 8 40 10 83 3 43 10
84 15 90 11 14 4 43 -11 43 -5 0 -13 -5 -17 -12z"/>
<path d="M1061 276 c-7 -8 -16 -27 -20 -43 -4 -15 -17 -32 -29 -38 -27 -12
-28 -25 -2 -32 13 -3 20 -14 20 -28 0 -32 25 -55 60 -55 23 0 35 9 54 37 32
46 26 53 -14 19 -37 -30 -56 -33 -68 -8 -12 22 -5 41 25 69 27 26 32 78 7 87
-21 8 -20 8 -33 -8z"/>
<path d="M1276 265 c-9 -14 -21 -37 -26 -51 -12 -31 -24 -25 -50 27 -21 40
-40 51 -40 23 0 -9 12 -37 27 -63 25 -46 26 -49 10 -81 -10 -18 -17 -37 -17
-42 0 -16 30 -7 40 13 11 19 13 19 29 5 22 -20 37 -20 45 0 9 25 7 64 -4 64
-5 0 -10 -9 -10 -20 0 -11 -4 -20 -9 -20 -22 0 -17 33 15 94 19 36 34 68 34
71 0 15 -30 1 -44 -20z"/>
</g>
</svg>
